<?xml version="1.0" encoding="UTF-8"?>
<svg id="Capa_1" data-name="Capa 1" xmlns="http://www.w3.org/2000/svg" viewBox="0 0 215 110">
  <defs>
    <style>
      .cls-1 {
        fill: #099;
      }

      .cls-1, .cls-2, .cls-3 {
        stroke-width: 0px;
      }

      .cls-2 {
        fill: #fff;
      }

      .cls-3 {
        fill: #75c2a6;
      }
    </style>
  </defs>
  <rect class="cls-1" width="215" height="110" rx="5" ry="5"/>
  <g>
    <circle class="cls-3" cx="46.99" cy="55" r="39.68"/>
    <g>
      <path class="cls-2" d="m95.45,40.68c0-.79.62-1.41,1.41-1.41h4.46c1.63,0,2.9.46,3.74,1.3.72.72,1.1,1.73,1.1,2.94v.04c0,2.02-1.01,3.27-2.57,3.91l1.96,2.39c.28.35.46.64.46,1.08,0,.79-.66,1.3-1.34,1.3-.64,0-1.06-.31-1.4-.73l-2.75-3.49h-2.26v2.81c0,.79-.62,1.41-1.41,1.41s-1.41-.62-1.41-1.41v-10.13Zm5.69,4.83c1.38,0,2.17-.73,2.17-1.82v-.04c0-1.21-.84-1.84-2.22-1.84h-2.81v3.69h2.86Z"/>
      <path class="cls-2" d="m112.17,52.34c-2.96,0-5.14-2.07-5.14-5.08v-.04c0-2.81,2-5.12,4.86-5.12,3.29,0,4.74,2.7,4.74,4.74,0,.81-.57,1.34-1.3,1.34h-5.52c.27,1.27,1.16,1.93,2.4,1.93.77,0,1.41-.24,1.98-.66.2-.15.39-.22.68-.22.62,0,1.08.48,1.08,1.1,0,.37-.17.64-.37.83-.86.73-1.98,1.19-3.41,1.19Zm1.8-5.91c-.17-1.25-.9-2.09-2.07-2.09s-1.91.83-2.13,2.09h4.2Z"/>
      <path class="cls-2" d="m117.77,51.18c-.29-.18-.53-.51-.53-.95,0-.62.48-1.1,1.1-1.1.2,0,.4.06.55.15.94.59,1.87.88,2.66.88s1.17-.29,1.17-.73v-.04c0-.61-.95-.81-2.04-1.14-1.38-.4-2.94-1.05-2.94-2.96v-.04c0-2,1.62-3.12,3.6-3.12,1.03,0,2.09.28,3.05.75.4.2.66.57.66,1.05,0,.62-.5,1.1-1.12,1.1-.2,0-.33-.04-.51-.13-.79-.39-1.54-.62-2.13-.62-.68,0-1.03.29-1.03.68v.04c0,.55.94.81,2,1.17,1.38.46,2.97,1.12,2.97,2.92v.04c0,2.18-1.63,3.18-3.76,3.18-1.21,0-2.51-.35-3.71-1.12Z"/>
      <path class="cls-2" d="m135.45,50.84c0,.77-.62,1.4-1.4,1.4s-1.4-.62-1.4-1.4v-.11c-.64.83-1.47,1.58-2.88,1.58-2.11,0-3.34-1.4-3.34-3.65v-5.08c0-.77.62-1.4,1.4-1.4s1.4.62,1.4,1.4v4.2c0,1.32.62,2,1.69,2s1.74-.68,1.74-2v-4.2c0-.77.62-1.4,1.4-1.4s1.4.62,1.4,1.4v7.27Z"/>
      <path class="cls-2" d="m137.34,40.01c0-.77.62-1.4,1.4-1.4s1.4.62,1.4,1.4v10.83c0,.77-.62,1.4-1.4,1.4s-1.4-.62-1.4-1.4v-10.83Z"/>
      <path class="cls-2" d="m142.48,49.33v-4.66h-.09c-.66,0-1.19-.53-1.19-1.19s.53-1.19,1.19-1.19h.09v-1.23c0-.77.62-1.4,1.4-1.4s1.4.62,1.4,1.4v1.23h1.23c.66,0,1.19.53,1.19,1.19s-.53,1.19-1.19,1.19h-1.23v4.2c0,.64.28.95.9.95.09,0,.27-.02.33-.02.62,0,1.16.51,1.16,1.16,0,.5-.33.9-.72,1.05-.51.2-.99.28-1.6.28-1.71,0-2.86-.68-2.86-2.96Z"/>
      <path class="cls-2" d="m148.32,49.29v-.04c0-2.15,1.63-3.14,3.97-3.14.99,0,1.71.17,2.4.4v-.17c0-1.16-.72-1.8-2.11-1.8-.77,0-1.4.11-1.93.28-.17.06-.28.07-.4.07-.64,0-1.16-.5-1.16-1.14,0-.5.31-.92.75-1.08.88-.33,1.84-.51,3.14-.51,1.52,0,2.62.4,3.32,1.1.73.73,1.06,1.82,1.06,3.14v4.48c0,.75-.61,1.34-1.36,1.34-.81,0-1.34-.57-1.34-1.16v-.02c-.68.75-1.62,1.25-2.97,1.25-1.85,0-3.38-1.06-3.38-3.01Zm6.41-.64v-.5c-.48-.22-1.1-.37-1.78-.37-1.19,0-1.93.48-1.93,1.36v.04c0,.75.62,1.19,1.52,1.19,1.3,0,2.18-.72,2.18-1.73Z"/>
      <path class="cls-2" d="m168.93,50.84c0,.77-.62,1.4-1.4,1.4s-1.4-.62-1.4-1.4v-.13c-.68.92-1.62,1.6-3.07,1.6-2.29,0-4.48-1.8-4.48-5.08v-.04c0-3.29,2.15-5.08,4.48-5.08,1.49,0,2.4.68,3.07,1.47v-3.56c0-.77.62-1.4,1.4-1.4s1.4.62,1.4,1.4v10.83Zm-7.54-3.65v.04c0,1.63,1.1,2.72,2.4,2.72s2.39-1.08,2.39-2.72v-.04c0-1.63-1.08-2.72-2.39-2.72s-2.4,1.06-2.4,2.72Z"/>
      <path class="cls-2" d="m170.22,47.26v-.04c0-2.83,2.28-5.12,5.34-5.12s5.3,2.26,5.3,5.08v.04c0,2.83-2.28,5.12-5.34,5.12s-5.31-2.26-5.31-5.08Zm7.89,0v-.04c0-1.45-1.05-2.72-2.59-2.72s-2.55,1.23-2.55,2.68v.04c0,1.45,1.05,2.72,2.59,2.72s2.55-1.23,2.55-2.68Z"/>
      <path class="cls-2" d="m181.89,51.18c-.29-.18-.53-.51-.53-.95,0-.62.48-1.1,1.1-1.1.2,0,.4.06.55.15.94.59,1.87.88,2.66.88s1.17-.29,1.17-.73v-.04c0-.61-.95-.81-2.04-1.14-1.38-.4-2.94-1.05-2.94-2.96v-.04c0-2,1.62-3.12,3.6-3.12,1.03,0,2.09.28,3.05.75.4.2.66.57.66,1.05,0,.62-.5,1.1-1.12,1.1-.2,0-.33-.04-.51-.13-.79-.39-1.54-.62-2.13-.62-.68,0-1.03.29-1.03.68v.04c0,.55.94.81,2,1.17,1.38.46,2.97,1.12,2.97,2.92v.04c0,2.18-1.63,3.18-3.76,3.18-1.21,0-2.51-.35-3.71-1.12Z"/>
      <path class="cls-2" d="m105.05,68.75c0,.77-.62,1.4-1.4,1.4s-1.4-.62-1.4-1.4v-.13c-.68.92-1.62,1.6-3.07,1.6-2.29,0-4.48-1.8-4.48-5.08v-.04c0-3.29,2.15-5.08,4.48-5.08,1.49,0,2.4.68,3.07,1.47v-3.56c0-.77.62-1.4,1.4-1.4s1.4.62,1.4,1.4v10.83Zm-7.54-3.65v.04c0,1.63,1.1,2.72,2.4,2.72s2.39-1.08,2.39-2.72v-.04c0-1.63-1.08-2.72-2.39-2.72s-2.4,1.06-2.4,2.72Z"/>
      <path class="cls-2" d="m111.47,70.25c-2.96,0-5.14-2.07-5.14-5.08v-.04c0-2.81,2-5.12,4.86-5.12,3.29,0,4.74,2.7,4.74,4.74,0,.81-.57,1.34-1.3,1.34h-5.52c.28,1.27,1.16,1.93,2.4,1.93.77,0,1.41-.24,1.98-.66.2-.15.39-.22.68-.22.62,0,1.08.48,1.08,1.1,0,.37-.17.64-.37.83-.86.73-1.98,1.19-3.41,1.19Zm1.8-5.91c-.17-1.25-.9-2.09-2.07-2.09s-1.91.83-2.13,2.09h4.2Z"/>
      <path class="cls-2" d="m126.76,70.25c-2.96,0-5.14-2.07-5.14-5.08v-.04c0-2.81,2-5.12,4.86-5.12,3.29,0,4.74,2.7,4.74,4.74,0,.81-.57,1.34-1.3,1.34h-5.52c.27,1.27,1.16,1.93,2.4,1.93.77,0,1.41-.24,1.98-.66.2-.15.39-.22.68-.22.62,0,1.08.48,1.08,1.1,0,.37-.17.64-.37.83-.86.73-1.98,1.19-3.41,1.19Zm1.8-5.91c-.17-1.25-.9-2.09-2.07-2.09s-1.91.83-2.13,2.09h4.2Z"/>
      <path class="cls-2" d="m132.22,68.01l2.52-2.97-2.29-2.64c-.31-.37-.46-.7-.46-1.06,0-.79.59-1.29,1.29-1.29.55,0,.94.26,1.3.72l1.82,2.42,1.85-2.42c.33-.4.72-.72,1.21-.72.73,0,1.3.51,1.3,1.21,0,.39-.17.68-.39.95l-2.39,2.79,2.46,2.83c.31.37.46.7.46,1.06,0,.79-.59,1.29-1.28,1.29-.55,0-.94-.26-1.3-.72l-1.98-2.61-1.98,2.61c-.33.4-.72.72-1.21.72-.73,0-1.3-.51-1.3-1.21,0-.39.15-.68.39-.95Z"/>
      <path class="cls-2" d="m141.29,67.2v-.04c0-2.15,1.63-3.14,3.97-3.14.99,0,1.71.17,2.4.4v-.17c0-1.16-.72-1.8-2.11-1.8-.77,0-1.4.11-1.93.28-.17.06-.28.07-.4.07-.64,0-1.16-.5-1.16-1.14,0-.5.31-.92.75-1.08.88-.33,1.84-.51,3.14-.51,1.52,0,2.62.4,3.32,1.1.73.73,1.06,1.82,1.06,3.14v4.48c0,.75-.61,1.34-1.36,1.34-.81,0-1.34-.57-1.34-1.16v-.02c-.68.75-1.62,1.25-2.97,1.25-1.85,0-3.38-1.06-3.38-3.01Zm6.41-.64v-.5c-.48-.22-1.1-.37-1.78-.37-1.19,0-1.93.48-1.93,1.36v.04c0,.75.62,1.19,1.52,1.19,1.3,0,2.18-.72,2.18-1.73Zm-2.37-7.82c0-.17.09-.35.18-.5l1.01-1.58c.24-.39.59-.62,1.05-.62.68,0,1.56.42,1.56.84,0,.26-.15.46-.37.66l-1.14,1.06c-.53.5-.97.61-1.6.61-.4,0-.7-.18-.7-.48Z"/>
      <path class="cls-2" d="m152.01,61.48c0-.77.62-1.4,1.4-1.4s1.4.62,1.4,1.4v.11c.64-.83,1.49-1.58,2.9-1.58,1.29,0,2.26.57,2.77,1.56.86-1.01,1.89-1.56,3.23-1.56,2.07,0,3.32,1.25,3.32,3.62v5.12c0,.77-.62,1.4-1.4,1.4s-1.4-.62-1.4-1.4v-4.2c0-1.32-.59-2-1.63-2s-1.69.68-1.69,2v4.2c0,.77-.62,1.4-1.4,1.4s-1.4-.62-1.4-1.4v-4.2c0-1.32-.59-2-1.63-2s-1.69.68-1.69,2v4.2c0,.77-.62,1.4-1.4,1.4s-1.4-.62-1.4-1.4v-7.27Z"/>
      <path class="cls-2" d="m173.38,70.25c-2.96,0-5.14-2.07-5.14-5.08v-.04c0-2.81,2-5.12,4.86-5.12,3.29,0,4.74,2.7,4.74,4.74,0,.81-.57,1.34-1.3,1.34h-5.52c.28,1.27,1.16,1.93,2.4,1.93.77,0,1.41-.24,1.98-.66.2-.15.39-.22.68-.22.62,0,1.08.48,1.08,1.1,0,.37-.17.64-.37.83-.86.73-1.98,1.19-3.41,1.19Zm1.8-5.91c-.17-1.25-.9-2.09-2.07-2.09s-1.91.83-2.13,2.09h4.2Z"/>
      <path class="cls-2" d="m179.23,61.48c0-.77.62-1.4,1.4-1.4s1.4.62,1.4,1.4v.11c.64-.83,1.47-1.58,2.88-1.58,2.11,0,3.34,1.4,3.34,3.65v5.08c0,.77-.62,1.4-1.4,1.4s-1.4-.62-1.4-1.4v-4.2c0-1.32-.62-2-1.69-2s-1.74.68-1.74,2v4.2c0,.77-.62,1.4-1.4,1.4s-1.4-.62-1.4-1.4v-7.27Z"/>
      <path class="cls-2" d="m194.6,70.25c-2.96,0-5.14-2.07-5.14-5.08v-.04c0-2.81,2-5.12,4.86-5.12,3.29,0,4.74,2.7,4.74,4.74,0,.81-.57,1.34-1.3,1.34h-5.52c.27,1.27,1.16,1.93,2.4,1.93.77,0,1.41-.24,1.98-.66.2-.15.39-.22.68-.22.62,0,1.08.48,1.08,1.1,0,.37-.17.64-.37.83-.86.73-1.98,1.19-3.41,1.19Zm1.8-5.91c-.17-1.25-.9-2.09-2.07-2.09s-1.91.83-2.13,2.09h4.2Z"/>
      <path class="cls-2" d="m200.2,69.09c-.29-.18-.53-.51-.53-.95,0-.62.48-1.1,1.1-1.1.2,0,.4.06.55.15.94.59,1.87.88,2.66.88s1.17-.29,1.17-.73v-.04c0-.61-.95-.81-2.04-1.14-1.38-.4-2.94-1.05-2.94-2.96v-.04c0-2,1.62-3.12,3.6-3.12,1.03,0,2.09.28,3.05.75.4.2.66.57.66,1.05,0,.62-.5,1.1-1.12,1.1-.2,0-.33-.04-.51-.13-.79-.39-1.54-.62-2.13-.62-.68,0-1.03.29-1.03.68v.04c0,.55.94.81,2,1.17,1.38.46,2.97,1.12,2.97,2.92v.04c0,2.18-1.63,3.18-3.76,3.18-1.21,0-2.51-.35-3.71-1.12Z"/>
    </g>
  </g>
  <g>
    <path class="cls-2" d="m43.25,32.36c.24-.83,1.29-2.41,3.55-2.4,2.79,0,3.59,2.28,3.62,2.38.16.48-.1,1-.58,1.16-.1.03-.2.05-.29.05-.38,0-.74-.24-.87-.62-.04-.1-.46-1.13-1.88-1.13s-1.78,1.07-1.79,1.08c-.14.49-.65.77-1.14.63-.49-.14-.77-.65-.63-1.14Zm20.35,16.03v29.79c0,1.03-.89,1.86-1.92,1.86h-29.85c-1.03,0-1.86-.89-1.86-1.92v-39.52c0-1.03.91-1.86,1.93-1.86h6.42s-.07-.4-.07-.4c-.09-.55.06-1.1.42-1.53.36-.42.88-.66,1.44-.66l13.45.02c.55,0,1.08.24,1.44.67.36.42.51.98.42,1.53l-.07.41h6.42c1.03.01,1.86.85,1.86,1.88v1.89c0,.51-.42.92-.92.92s-.92-.41-.92-.92v-1.89s-6.75,0-6.75,0l-.37,2.12c-.15.91-.94,1.57-1.86,1.57l-11.96-.02c-.92,0-1.7-.66-1.85-1.57l-.36-2.16h-6.82s0,39.53,0,39.53h29.88s0-29.73,0-29.73c0-.51.49-.92,1-.92s.92.41.92.92Zm-23.54-12.35l.73,4.41s.02.04.05.04h11.96s.04-.02.05-.04l.43-2.53.32-1.85-.05-.08h-13.45s-.05.06-.05.06Zm17.21,22.07c0-5.53-4.48-10.04-10.01-10.05s-10.04,4.48-10.05,10.01c0,5.53,4.48,10.04,10.01,10.05,5.53,0,10.04-4.48,10.05-10.01Zm-1.83,0c0,4.52-3.69,8.19-8.21,8.18-4.52,0-8.19-3.69-8.18-8.21,0-4.52,3.69-8.19,8.21-8.18,4.52,0,8.19,3.69,8.18,8.21Zm-9.14,3.7l6.79-6.56c.36-.35.37-.93.02-1.3-.35-.36-.93-.37-1.3-.02l-6.15,5.94-3.07-3c-.36-.35-.94-.35-1.3.02-.35.36-.35.94.02,1.3l3.71,3.62c.18.17.41.26.64.26s.46-.09.64-.26Z"/>
    <path class="cls-2" d="m62.86,43.03c.7.07,1.21.69,1.15,1.39-.07.7-.69,1.21-1.39,1.15-.7-.07-1.21-.69-1.15-1.39s.69-1.21,1.39-1.15Z"/>
  </g>
</svg>