<?xml version="1.0" encoding="UTF-8"?>
<svg id="Capa_1" data-name="Capa 1" xmlns="http://www.w3.org/2000/svg" viewBox="0 0 215 110">
  <defs>
    <style>
      .cls-1 {
        fill: #099;
      }

      .cls-1, .cls-2, .cls-3 {
        stroke-width: 0px;
      }

      .cls-2 {
        fill: #fff;
      }

      .cls-3 {
        fill: #75c2a6;
      }
    </style>
  </defs>
  <rect class="cls-1" width="215" height="110" rx="5" ry="5"/>
  <g>
    <circle class="cls-3" cx="56.3" cy="55" r="39.68"/>
    <g>
      <path class="cls-2" d="m107.75,31.92h-2.72c-.72,0-1.3-.59-1.3-1.3s.59-1.3,1.3-1.3h8.26c.72,0,1.3.59,1.3,1.3s-.59,1.3-1.3,1.3h-2.72v8.94c0,.79-.62,1.41-1.41,1.41s-1.41-.62-1.41-1.41v-8.94Z"/>
      <path class="cls-2" d="m113.22,37.3v-.04c0-2.83,2.28-5.12,5.34-5.12s5.3,2.26,5.3,5.08v.04c0,2.83-2.28,5.12-5.34,5.12s-5.31-2.26-5.31-5.08Zm7.89,0v-.04c0-1.45-1.05-2.72-2.59-2.72s-2.55,1.23-2.55,2.68v.04c0,1.45,1.05,2.72,2.59,2.72s2.55-1.23,2.55-2.68Z"/>
      <path class="cls-2" d="m125.15,33.61c0-.77.62-1.4,1.4-1.4s1.4.62,1.4,1.4v.11c.64-.83,1.49-1.58,2.9-1.58,1.29,0,2.26.57,2.77,1.56.86-1.01,1.89-1.56,3.23-1.56,2.07,0,3.32,1.25,3.32,3.62v5.12c0,.77-.62,1.4-1.4,1.4s-1.4-.62-1.4-1.4v-4.2c0-1.32-.59-2-1.63-2s-1.69.68-1.69,2v4.2c0,.77-.62,1.4-1.4,1.4s-1.4-.62-1.4-1.4v-4.2c0-1.32-.59-2-1.63-2s-1.69.68-1.69,2v4.2c0,.77-.62,1.4-1.4,1.4s-1.4-.62-1.4-1.4v-7.27Z"/>
      <path class="cls-2" d="m141.27,39.34v-.04c0-2.15,1.63-3.14,3.97-3.14.99,0,1.71.17,2.4.4v-.17c0-1.16-.72-1.8-2.11-1.8-.77,0-1.4.11-1.93.28-.17.06-.28.07-.4.07-.64,0-1.16-.5-1.16-1.14,0-.5.31-.92.75-1.08.88-.33,1.84-.51,3.14-.51,1.52,0,2.62.4,3.32,1.1.73.73,1.06,1.82,1.06,3.14v4.48c0,.75-.61,1.34-1.36,1.34-.81,0-1.34-.57-1.34-1.16v-.02c-.68.75-1.62,1.25-2.97,1.25-1.85,0-3.38-1.06-3.38-3.01Zm6.41-.64v-.5c-.48-.22-1.1-.37-1.78-.37-1.19,0-1.93.48-1.93,1.36v.04c0,.75.62,1.19,1.52,1.19,1.3,0,2.18-.72,2.18-1.73Z"/>
      <path class="cls-2" d="m166.66,40.88c0,.77-.62,1.4-1.4,1.4s-1.4-.62-1.4-1.4v-.13c-.68.92-1.62,1.6-3.07,1.6-2.29,0-4.48-1.8-4.48-5.08v-.04c0-3.29,2.15-5.08,4.48-5.08,1.49,0,2.4.68,3.07,1.47v-3.56c0-.77.62-1.4,1.4-1.4s1.4.62,1.4,1.4v10.83Zm-7.54-3.65v.04c0,1.63,1.1,2.72,2.4,2.72s2.39-1.08,2.39-2.72v-.04c0-1.63-1.08-2.72-2.39-2.72s-2.4,1.06-2.4,2.72Z"/>
      <path class="cls-2" d="m173.08,42.39c-2.96,0-5.14-2.07-5.14-5.08v-.04c0-2.81,2-5.12,4.86-5.12,3.29,0,4.74,2.7,4.74,4.74,0,.81-.57,1.34-1.3,1.34h-5.52c.27,1.27,1.16,1.93,2.4,1.93.77,0,1.41-.24,1.98-.66.2-.15.39-.22.68-.22.62,0,1.08.48,1.08,1.1,0,.37-.17.64-.37.83-.86.73-1.98,1.19-3.41,1.19Zm1.8-5.91c-.17-1.25-.9-2.09-2.07-2.09s-1.91.83-2.13,2.09h4.2Z"/>
      <path class="cls-2" d="m104.46,51.52c0-.77.62-1.4,1.4-1.4s1.4.62,1.4,1.4v.11c.64-.83,1.49-1.58,2.9-1.58,1.29,0,2.26.57,2.77,1.56.86-1.01,1.89-1.56,3.23-1.56,2.07,0,3.32,1.25,3.32,3.62v5.12c0,.77-.62,1.4-1.4,1.4s-1.4-.62-1.4-1.4v-4.2c0-1.32-.59-2-1.63-2s-1.69.68-1.69,2v4.2c0,.77-.62,1.4-1.4,1.4s-1.4-.62-1.4-1.4v-4.2c0-1.32-.59-2-1.63-2s-1.69.68-1.69,2v4.2c0,.77-.62,1.4-1.4,1.4s-1.4-.62-1.4-1.4v-7.27Z"/>
      <path class="cls-2" d="m130.11,58.79c0,.77-.62,1.4-1.4,1.4s-1.4-.62-1.4-1.4v-.11c-.64.83-1.47,1.58-2.88,1.58-2.11,0-3.34-1.4-3.34-3.65v-5.08c0-.77.62-1.4,1.4-1.4s1.4.62,1.4,1.4v4.2c0,1.32.62,2,1.69,2s1.74-.68,1.74-2v-4.2c0-.77.62-1.4,1.4-1.4s1.4.62,1.4,1.4v7.27Z"/>
      <path class="cls-2" d="m136.53,60.3c-2.96,0-5.14-2.07-5.14-5.08v-.04c0-2.81,2-5.12,4.86-5.12,3.29,0,4.74,2.7,4.74,4.74,0,.81-.57,1.34-1.3,1.34h-5.52c.28,1.27,1.16,1.93,2.4,1.93.77,0,1.41-.24,1.98-.66.2-.15.39-.22.68-.22.62,0,1.08.48,1.08,1.1,0,.37-.17.64-.37.83-.86.73-1.98,1.19-3.41,1.19Zm1.8-5.91c-.17-1.25-.9-2.09-2.07-2.09s-1.91.83-2.13,2.09h4.2Z"/>
      <path class="cls-2" d="m142.13,59.14c-.29-.18-.53-.51-.53-.95,0-.62.48-1.1,1.1-1.1.2,0,.4.06.55.15.94.59,1.87.88,2.66.88s1.17-.29,1.17-.73v-.04c0-.61-.95-.81-2.04-1.14-1.38-.4-2.94-1.05-2.94-2.96v-.04c0-2,1.62-3.12,3.6-3.12,1.03,0,2.09.28,3.05.75.4.2.66.57.66,1.05,0,.62-.5,1.1-1.12,1.1-.2,0-.33-.04-.51-.13-.79-.39-1.54-.62-2.13-.62-.68,0-1.03.29-1.03.68v.04c0,.55.94.81,2,1.17,1.38.46,2.97,1.12,2.97,2.92v.04c0,2.18-1.63,3.18-3.76,3.18-1.21,0-2.51-.35-3.71-1.12Z"/>
      <path class="cls-2" d="m151.15,57.29v-4.66h-.09c-.66,0-1.19-.53-1.19-1.19s.53-1.19,1.19-1.19h.09v-1.23c0-.77.62-1.4,1.4-1.4s1.4.62,1.4,1.4v1.23h1.23c.66,0,1.19.53,1.19,1.19s-.53,1.19-1.19,1.19h-1.23v4.2c0,.64.28.95.9.95.09,0,.27-.02.33-.02.62,0,1.16.51,1.16,1.16,0,.5-.33.9-.72,1.05-.51.2-.99.28-1.6.28-1.71,0-2.86-.68-2.86-2.96Z"/>
      <path class="cls-2" d="m157.57,51.52c0-.77.62-1.4,1.4-1.4s1.4.62,1.4,1.4v.44c.4-.95,1.06-1.84,1.89-1.84s1.36.57,1.36,1.36c0,.73-.48,1.17-1.05,1.3-1.41.33-2.2,1.41-2.2,3.4v2.61c0,.77-.62,1.4-1.4,1.4s-1.4-.62-1.4-1.4v-7.27Z"/>
      <path class="cls-2" d="m163.46,57.25v-.04c0-2.15,1.63-3.14,3.97-3.14.99,0,1.71.17,2.4.4v-.17c0-1.16-.72-1.8-2.11-1.8-.77,0-1.4.11-1.93.28-.17.06-.28.07-.4.07-.64,0-1.16-.5-1.16-1.14,0-.5.31-.92.75-1.08.88-.33,1.84-.51,3.14-.51,1.52,0,2.62.4,3.32,1.1.73.73,1.06,1.82,1.06,3.14v4.48c0,.75-.61,1.34-1.36,1.34-.81,0-1.34-.57-1.34-1.16v-.02c-.68.75-1.62,1.25-2.97,1.25-1.85,0-3.38-1.06-3.38-3.01Zm6.41-.64v-.5c-.48-.22-1.1-.37-1.78-.37-1.19,0-1.93.48-1.93,1.36v.04c0,.75.62,1.19,1.52,1.19,1.3,0,2.18-.72,2.18-1.73Z"/>
      <path class="cls-2" d="m173.93,59.14c-.29-.18-.53-.51-.53-.95,0-.62.48-1.1,1.1-1.1.2,0,.4.06.55.15.94.59,1.87.88,2.66.88s1.17-.29,1.17-.73v-.04c0-.61-.95-.81-2.04-1.14-1.38-.4-2.94-1.05-2.94-2.96v-.04c0-2,1.62-3.12,3.6-3.12,1.03,0,2.09.28,3.05.75.4.2.66.57.66,1.05,0,.62-.5,1.1-1.12,1.1-.2,0-.33-.04-.51-.13-.79-.39-1.54-.62-2.13-.62-.68,0-1.03.29-1.03.68v.04c0,.55.94.81,2,1.17,1.38.46,2.97,1.12,2.97,2.92v.04c0,2.18-1.63,3.18-3.76,3.18-1.21,0-2.51-.35-3.71-1.12Z"/>
      <path class="cls-2" d="m103.87,75.16v-.04c0-2.15,1.63-3.14,3.97-3.14.99,0,1.71.17,2.4.4v-.17c0-1.16-.72-1.8-2.11-1.8-.77,0-1.4.11-1.93.28-.17.06-.28.07-.4.07-.64,0-1.16-.5-1.16-1.14,0-.5.31-.92.75-1.08.88-.33,1.84-.51,3.14-.51,1.52,0,2.62.4,3.32,1.1.73.73,1.06,1.82,1.06,3.14v4.48c0,.75-.61,1.34-1.36,1.34-.81,0-1.34-.57-1.34-1.16v-.02c-.68.75-1.62,1.25-2.97,1.25-1.85,0-3.38-1.06-3.38-3.01Zm6.41-.64v-.5c-.48-.22-1.1-.37-1.78-.37-1.19,0-1.93.48-1.93,1.36v.04c0,.75.62,1.19,1.52,1.19,1.3,0,2.18-.72,2.18-1.73Z"/>
      <path class="cls-2" d="m129.26,76.7c0,.77-.62,1.4-1.4,1.4s-1.4-.62-1.4-1.4v-.13c-.68.92-1.62,1.6-3.07,1.6-2.29,0-4.48-1.8-4.48-5.08v-.04c0-3.29,2.15-5.08,4.48-5.08,1.49,0,2.4.68,3.07,1.47v-3.56c0-.77.62-1.4,1.4-1.4s1.4.62,1.4,1.4v10.83Zm-7.54-3.65v.04c0,1.63,1.1,2.72,2.4,2.72s2.39-1.08,2.39-2.72v-.04c0-1.63-1.08-2.72-2.39-2.72s-2.4,1.06-2.4,2.72Z"/>
      <path class="cls-2" d="m130.55,73.12v-.04c0-2.83,2.28-5.12,5.34-5.12s5.3,2.26,5.3,5.08v.04c0,2.83-2.28,5.12-5.34,5.12s-5.31-2.26-5.31-5.08Zm7.89,0v-.04c0-1.45-1.05-2.72-2.59-2.72s-2.55,1.23-2.55,2.68v.04c0,1.45,1.05,2.72,2.59,2.72s2.55-1.23,2.55-2.68Z"/>
      <path class="cls-2" d="m142.48,69.43c0-.77.62-1.4,1.4-1.4s1.4.62,1.4,1.4v.11c.64-.83,1.49-1.58,2.9-1.58,1.29,0,2.26.57,2.77,1.56.86-1.01,1.89-1.56,3.23-1.56,2.07,0,3.32,1.25,3.32,3.62v5.12c0,.77-.62,1.4-1.4,1.4s-1.4-.62-1.4-1.4v-4.2c0-1.32-.59-2-1.63-2s-1.69.68-1.69,2v4.2c0,.77-.62,1.4-1.4,1.4s-1.4-.62-1.4-1.4v-4.2c0-1.32-.59-2-1.63-2s-1.69.68-1.69,2v4.2c0,.77-.62,1.4-1.4,1.4s-1.4-.62-1.4-1.4v-7.27Z"/>
      <path class="cls-2" d="m159.15,65.8c0-.81.68-1.3,1.56-1.3s1.56.5,1.56,1.3v.04c0,.81-.68,1.32-1.56,1.32s-1.56-.51-1.56-1.32v-.04Zm.17,3.63c0-.77.62-1.4,1.4-1.4s1.4.62,1.4,1.4v7.27c0,.77-.62,1.4-1.4,1.4s-1.4-.62-1.4-1.4v-7.27Z"/>
      <path class="cls-2" d="m163.52,73.12v-.04c0-2.81,2.15-5.12,5.16-5.12,1.49,0,2.53.4,3.36,1.1.18.15.44.48.44.95,0,.7-.57,1.25-1.27,1.25-.37,0-.64-.15-.81-.28-.5-.39-1.01-.62-1.74-.62-1.4,0-2.39,1.23-2.39,2.68v.04c0,1.51.97,2.72,2.5,2.72.73,0,1.3-.26,1.84-.68.15-.11.42-.26.75-.26.66,0,1.17.53,1.17,1.19,0,.37-.17.66-.4.88-.83.75-1.87,1.27-3.49,1.27-2.96,0-5.12-2.28-5.12-5.08Z"/>
      <path class="cls-2" d="m173.71,65.8c0-.81.68-1.3,1.56-1.3s1.56.5,1.56,1.3v.04c0,.81-.68,1.32-1.56,1.32s-1.56-.51-1.56-1.32v-.04Zm.17,3.63c0-.77.62-1.4,1.4-1.4s1.4.62,1.4,1.4v7.27c0,.77-.62,1.4-1.4,1.4s-1.4-.62-1.4-1.4v-7.27Z"/>
      <path class="cls-2" d="m178.68,65.87c0-.77.62-1.4,1.4-1.4s1.4.62,1.4,1.4v10.83c0,.77-.62,1.4-1.4,1.4s-1.4-.62-1.4-1.4v-10.83Z"/>
      <path class="cls-2" d="m183.33,65.8c0-.81.68-1.3,1.56-1.3s1.56.5,1.56,1.3v.04c0,.81-.68,1.32-1.56,1.32s-1.56-.51-1.56-1.32v-.04Zm.17,3.63c0-.77.62-1.4,1.4-1.4s1.4.62,1.4,1.4v7.27c0,.77-.62,1.4-1.4,1.4s-1.4-.62-1.4-1.4v-7.27Z"/>
      <path class="cls-2" d="m187.69,73.12v-.04c0-2.83,2.28-5.12,5.34-5.12s5.3,2.26,5.3,5.08v.04c0,2.83-2.28,5.12-5.34,5.12s-5.31-2.26-5.31-5.08Zm7.89,0v-.04c0-1.45-1.05-2.72-2.59-2.72s-2.55,1.23-2.55,2.68v.04c0,1.45,1.05,2.72,2.59,2.72s2.55-1.23,2.55-2.68Z"/>
    </g>
  </g>
  <g>
    <path class="cls-2" d="m48.14,41.12h-6.32c-.44,0-.79-.36-.79-.79s.36-.79.79-.79h6.32c.44,0,.79.36.79.79s-.36.79-.79.79Z"/>
    <path class="cls-2" d="m47.72,81.72c-3.72,0-6.75-3.03-6.75-6.75v-33.98c-1.03-.34-1.78-1.31-1.78-2.45v-1.07c0-1.42,1.16-2.58,2.58-2.58h11.9c1.42,0,2.58,1.16,2.58,2.58v1.07c0,1.14-.75,2.12-1.78,2.45v33.98c0,3.72-3.03,6.75-6.75,6.75Zm-5.95-45.25c-.55,0-.99.44-.99.99v1.07c0,.55.44.99.99.99h.79v35.45c0,2.84,2.31,5.16,5.16,5.16s5.16-2.31,5.16-5.16v-35.45h.79c.55,0,.99-.44.99-.99v-1.07c0-.55-.44-.99-.99-.99h-11.9Z"/>
    <path class="cls-2" d="m44.62,57.81v17.16c0,1.71,1.39,3.1,3.1,3.1s3.1-1.39,3.1-3.1v-18.7c-1.3,1.05-2.96,1.68-4.76,1.68-.49,0-.97-.05-1.44-.14Z"/>
    <path class="cls-2" d="m66.09,52.61h-4.28c-.44,0-.79-.36-.79-.79s.36-.79.79-.79h4.28c.44,0,.79.36.79.79s-.36.79-.79.79Z"/>
    <path class="cls-2" d="m67.71,81.72c-3.72,0-6.75-3.03-6.75-6.75v-22.49c-1.03-.34-1.78-1.31-1.78-2.45v-1.07c0-1.42,1.16-2.58,2.58-2.58h11.9c1.42,0,2.58,1.16,2.58,2.58v1.07c0,1.14-.75,2.12-1.78,2.45v22.49c0,3.72-3.03,6.75-6.75,6.75Zm-5.95-33.76c-.55,0-.99.44-.99.99v1.07c0,.55.44.99.99.99h.79v23.96c0,2.84,2.31,5.16,5.16,5.16s5.16-2.31,5.16-5.16v-23.96h.79c.55,0,.99-.44.99-.99v-1.07c0-.55-.44-.99-.99-.99h-11.9Z"/>
    <path class="cls-2" d="m64.61,69.3v5.68c0,1.71,1.39,3.1,3.1,3.1s3.1-1.39,3.1-3.1v-7.22c-1.3,1.05-2.96,1.68-4.76,1.68-.49,0-.97-.05-1.44-.14Z"/>
    <path class="cls-2" d="m49.66,29.91c0-1.07-1.95-3.74-1.95-3.74,0,0-1.94,2.66-1.94,3.74s.87,1.94,1.94,1.94,1.95-.87,1.95-1.94Z"/>
    <circle class="cls-2" cx="50.76" cy="40.5" r=".87"/>
  </g>
</svg>