<?xml version="1.0" encoding="UTF-8"?>
<svg id="Capa_1" data-name="Capa 1" xmlns="http://www.w3.org/2000/svg" viewBox="0 0 215 110">
  <defs>
    <style>
      .cls-1 {
        fill: #099;
      }

      .cls-1, .cls-2, .cls-3, .cls-4, .cls-5, .cls-6 {
        stroke-width: 0px;
      }

      .cls-2 {
        fill: none;
      }

      .cls-3 {
        fill: #fff;
      }

      .cls-4 {
        fill: #297cbd;
      }

      .cls-5 {
        fill: #75c2a6;
      }

      .cls-6 {
        fill: #e64146;
      }
    </style>
  </defs>
  <rect class="cls-1" width="215" height="110" rx="5" ry="5"/>
  <g>
    <circle class="cls-5" cx="62.29" cy="55" r="39.68"/>
    <g>
      <path class="cls-3" d="m110.18,35.78v-.04c0-3.65,2.85-6.65,6.74-6.65,1.95,0,3.23.44,4.39,1.25.28.2.59.59.59,1.14,0,.77-.62,1.4-1.4,1.4-.4,0-.66-.15-.86-.29-.77-.55-1.6-.88-2.81-.88-2.06,0-3.69,1.82-3.69,4v.04c0,2.35,1.62,4.08,3.89,4.08,1.03,0,1.95-.26,2.66-.77v-1.84h-1.91c-.68,0-1.23-.53-1.23-1.21s.55-1.23,1.23-1.23h3.23c.79,0,1.41.62,1.41,1.41v3.12c0,.83-.31,1.4-.99,1.8-1.05.64-2.57,1.28-4.5,1.28-4,0-6.76-2.81-6.76-6.61Z"/>
      <path class="cls-3" d="m133.05,40.88c0,.77-.62,1.4-1.4,1.4s-1.4-.62-1.4-1.4v-.11c-.64.83-1.47,1.58-2.88,1.58-2.11,0-3.34-1.4-3.34-3.65v-5.08c0-.77.62-1.4,1.4-1.4s1.4.62,1.4,1.4v4.2c0,1.32.62,2,1.69,2s1.74-.68,1.74-2v-4.2c0-.77.62-1.4,1.4-1.4s1.4.62,1.4,1.4v7.27Z"/>
      <path class="cls-3" d="m134.94,33.61c0-.77.62-1.4,1.4-1.4s1.4.62,1.4,1.4v7.27c0,.77-.62,1.4-1.4,1.4s-1.4-.62-1.4-1.4v-7.27Zm.62-2.73c0-.17.09-.35.18-.5l1.01-1.58c.24-.39.59-.62,1.05-.62.68,0,1.56.42,1.56.84,0,.26-.15.46-.37.66l-1.14,1.06c-.53.5-.97.61-1.6.61-.4,0-.7-.18-.7-.48Z"/>
      <path class="cls-3" d="m139.04,39.34v-.04c0-2.15,1.63-3.14,3.97-3.14.99,0,1.71.17,2.4.4v-.17c0-1.16-.72-1.8-2.11-1.8-.77,0-1.4.11-1.93.28-.17.06-.28.07-.4.07-.64,0-1.16-.5-1.16-1.14,0-.5.31-.92.75-1.08.88-.33,1.84-.51,3.14-.51,1.52,0,2.62.4,3.32,1.1.73.73,1.06,1.82,1.06,3.14v4.48c0,.75-.61,1.34-1.36,1.34-.81,0-1.34-.57-1.34-1.16v-.02c-.68.75-1.62,1.25-2.97,1.25-1.85,0-3.38-1.06-3.38-3.01Zm6.41-.64v-.5c-.48-.22-1.1-.37-1.78-.37-1.19,0-1.93.48-1.93,1.36v.04c0,.75.62,1.19,1.52,1.19,1.3,0,2.18-.72,2.18-1.73Z"/>
      <path class="cls-3" d="m110.45,51.52c0-.77.62-1.4,1.4-1.4s1.4.62,1.4,1.4v.13c.68-.92,1.62-1.6,3.07-1.6,2.29,0,4.48,1.8,4.48,5.08v.04c0,3.29-2.15,5.08-4.48,5.08-1.49,0-2.4-.68-3.07-1.47v2.94c0,.77-.62,1.4-1.4,1.4s-1.4-.62-1.4-1.4v-10.21Zm7.54,3.65v-.04c0-1.63-1.1-2.72-2.4-2.72s-2.39,1.08-2.39,2.72v.04c0,1.63,1.08,2.72,2.39,2.72s2.4-1.06,2.4-2.72Z"/>
      <path class="cls-3" d="m121.52,57.25v-.04c0-2.15,1.63-3.14,3.97-3.14.99,0,1.71.17,2.4.4v-.17c0-1.16-.72-1.8-2.11-1.8-.77,0-1.4.11-1.93.28-.17.06-.28.07-.4.07-.64,0-1.16-.5-1.16-1.14,0-.5.31-.92.75-1.08.88-.33,1.84-.51,3.14-.51,1.52,0,2.62.4,3.32,1.1.73.73,1.06,1.82,1.06,3.14v4.48c0,.75-.61,1.34-1.36,1.34-.81,0-1.34-.57-1.34-1.16v-.02c-.68.75-1.62,1.25-2.97,1.25-1.85,0-3.38-1.06-3.38-3.01Zm6.41-.64v-.5c-.48-.22-1.1-.37-1.78-.37-1.19,0-1.93.48-1.93,1.36v.04c0,.75.62,1.19,1.52,1.19,1.3,0,2.18-.72,2.18-1.73Z"/>
      <path class="cls-3" d="m131.77,55.21v-.04c0-2.81,2.15-5.12,5.16-5.12,1.49,0,2.53.4,3.36,1.1.18.15.44.48.44.95,0,.7-.57,1.25-1.27,1.25-.37,0-.64-.15-.81-.28-.5-.39-1.01-.62-1.74-.62-1.4,0-2.39,1.23-2.39,2.68v.04c0,1.51.97,2.72,2.5,2.72.73,0,1.3-.26,1.84-.68.15-.11.42-.26.75-.26.66,0,1.17.53,1.17,1.19,0,.37-.17.66-.4.88-.83.75-1.87,1.27-3.49,1.27-2.96,0-5.12-2.28-5.12-5.08Z"/>
      <path class="cls-3" d="m141.96,47.89c0-.81.68-1.3,1.56-1.3s1.56.5,1.56,1.3v.04c0,.81-.68,1.32-1.56,1.32s-1.56-.51-1.56-1.32v-.04Zm.17,3.63c0-.77.62-1.4,1.4-1.4s1.4.62,1.4,1.4v7.27c0,.77-.62,1.4-1.4,1.4s-1.4-.62-1.4-1.4v-7.27Z"/>
      <path class="cls-3" d="m151.47,60.3c-2.96,0-5.14-2.07-5.14-5.08v-.04c0-2.81,2-5.12,4.86-5.12,3.29,0,4.74,2.7,4.74,4.74,0,.81-.57,1.34-1.3,1.34h-5.52c.27,1.27,1.16,1.93,2.4,1.93.77,0,1.41-.24,1.98-.66.2-.15.39-.22.68-.22.62,0,1.08.48,1.08,1.1,0,.37-.17.64-.37.83-.86.73-1.98,1.19-3.41,1.19Zm1.8-5.91c-.17-1.25-.9-2.09-2.07-2.09s-1.91.83-2.13,2.09h4.2Z"/>
      <path class="cls-3" d="m157.32,51.52c0-.77.62-1.4,1.4-1.4s1.4.62,1.4,1.4v.11c.64-.83,1.47-1.58,2.88-1.58,2.11,0,3.34,1.4,3.34,3.65v5.08c0,.77-.62,1.4-1.4,1.4s-1.4-.62-1.4-1.4v-4.2c0-1.32-.62-2-1.69-2s-1.74.68-1.74,2v4.2c0,.77-.62,1.4-1.4,1.4s-1.4-.62-1.4-1.4v-7.27Z"/>
      <path class="cls-3" d="m168.48,57.29v-4.66h-.09c-.66,0-1.19-.53-1.19-1.19s.53-1.19,1.19-1.19h.09v-1.23c0-.77.62-1.4,1.4-1.4s1.4.62,1.4,1.4v1.23h1.23c.66,0,1.19.53,1.19,1.19s-.53,1.19-1.19,1.19h-1.23v4.2c0,.64.28.95.9.95.09,0,.27-.02.33-.02.62,0,1.16.51,1.16,1.16,0,.5-.33.9-.72,1.05-.51.2-.99.28-1.6.28-1.71,0-2.86-.68-2.86-2.96Z"/>
      <path class="cls-3" d="m179.3,60.3c-2.96,0-5.14-2.07-5.14-5.08v-.04c0-2.81,2-5.12,4.86-5.12,3.29,0,4.74,2.7,4.74,4.74,0,.81-.57,1.34-1.3,1.34h-5.52c.28,1.27,1.16,1.93,2.4,1.93.77,0,1.41-.24,1.98-.66.2-.15.39-.22.68-.22.62,0,1.08.48,1.08,1.1,0,.37-.17.64-.37.83-.86.73-1.98,1.19-3.41,1.19Zm1.8-5.91c-.17-1.25-.9-2.09-2.07-2.09s-1.91.83-2.13,2.09h4.2Z"/>
      <path class="cls-3" d="m184.9,59.14c-.29-.18-.53-.51-.53-.95,0-.62.48-1.1,1.1-1.1.2,0,.4.06.55.15.94.59,1.87.88,2.66.88s1.17-.29,1.17-.73v-.04c0-.61-.95-.81-2.04-1.14-1.38-.4-2.94-1.05-2.94-2.96v-.04c0-2,1.62-3.12,3.6-3.12,1.03,0,2.09.28,3.05.75.4.2.66.57.66,1.05,0,.62-.5,1.1-1.12,1.1-.2,0-.33-.04-.51-.13-.79-.39-1.54-.62-2.13-.62-.68,0-1.03.29-1.03.68v.04c0,.55.94.81,2,1.17,1.38.46,2.97,1.12,2.97,2.92v.04c0,2.18-1.63,3.18-3.76,3.18-1.21,0-2.51-.35-3.71-1.12Z"/>
    </g>
  </g>
  <path class="cls-2" d="m129.18,69.45c-2.06.03-3.9,1.66-4.37,3.88-.44,2.09.78,3.57,2.94,3.6.24-.03.49-.03.73-.09,2.05-.5,3.25-1.83,3.71-3.8.5-2.16-.76-3.61-3.01-3.58Z"/>
  <path class="cls-2" d="m157.06,69.58c-1.34-.21-2.66-.07-3.87.54-1.91.96-3.14,2.41-3.29,4.22,0,1.83.76,2.59,2.24,2.56,1.29-.03,2.25-.69,3.1-1.56,1.47-1.52,1.63-3.55,2.13-5.43.02-.08-.19-.3-.32-.32Z"/>
  <path class="cls-2" d="m175.61,69.56c-2.33.38-4.33,2.26-4.79,4.51-.38,1.89.86,3.11,2.78,2.72,1-.21,1.79-.76,2.49-1.47,1.54-1.58,1.66-3.68,2.25-5.69-.97-.26-1.85-.21-2.73-.06Z"/>
  <path class="cls-3" d="m179.22,68.36c-2.02-.22-4.02-.18-5.93.61-2.29.95-3.95,2.48-4.54,4.93-.51,2.11.64,3.9,2.66,4.14,2.17.26,3.96-.43,5.34-2.1.12-.14.25-.27.37-.41.02.36-.05.64-.14.92-.33,1.07.34,1.75,1.51,1.52.04-.31.04-.62.11-.93.6-2.49,1.21-4.98,1.83-7.47.07-.3.2-.59.3-.88v-.11c-.51-.08-1.01-.17-1.52-.23Zm-3.12,6.95c-.7.71-1.49,1.26-2.49,1.47-1.92.4-3.17-.82-2.78-2.72.46-2.25,2.46-4.13,4.79-4.51.88-.15,1.76-.2,2.73.06-.58,2.01-.71,4.11-2.25,5.69Z"/>
  <path class="cls-3" d="m159.41,68.55c-2.33-.38-4.65-.45-6.89.43-2.33.91-4.03,2.44-4.65,4.91-.53,2.1.44,3.8,2.38,4.16,2.13.4,3.93-.22,5.38-1.8.2-.22.39-.44.58-.66l.13.06c-.08.27-.16.55-.25.82-.3.88.04,1.42.98,1.58.36.06.5-.07.58-.41.39-1.79.79-3.59,1.21-5.37.28-1.19.6-2.37.91-3.56-.16-.06-.26-.12-.37-.13Zm-4.16,6.78c-.84.87-1.81,1.54-3.1,1.56-1.48.03-2.25-.73-2.24-2.56.15-1.8,1.38-3.25,3.29-4.22,1.22-.61,2.53-.75,3.87-.54.13.02.34.24.32.32-.51,1.89-.67,3.91-2.13,5.43Z"/>
  <path class="cls-3" d="m118.19,66.21c1.39,0,2.77,0,4.16,0,.77,0,1.1-.35,1.1-1.15-.07-.01-.14-.04-.22-.04-2.45,0-4.9-.02-7.35,0-.9,0-1.47.54-1.7,1.44-.59,2.34-1.19,4.68-1.79,7.02-.56,2.2-1.13,4.39-1.69,6.59-.14.57.15,1.05.7,1.2.73.19,1.07.02,1.23-.65.57-2.27,1.15-4.53,1.71-6.81.11-.43.28-.6.76-.59,1.58.04,3.15.01,4.73.01.93,0,1.3-.34,1.4-1.37-1.04,0-2.08,0-3.11,0s-2.11,0-3.25,0c.35-1.38.67-2.65,1.01-3.92.31-1.17,1.06-1.73,2.3-1.74Z"/>
  <path class="cls-3" d="m131.08,68.42c-1.03-.17-2.14-.18-3.16.01-2.5.48-4.33,1.86-5.11,4.32-.78,2.43.37,4.47,2.88,5.13.58.15,1.19.18,1.79.26v-.05c.33-.01.65-.02.98-.04,2.52-.15,4.95-1.96,5.76-4.28.9-2.6-.39-4.9-3.13-5.35Zm1.11,4.61c-.45,1.96-1.65,3.3-3.71,3.8-.24.06-.49.06-.73.09-2.16-.02-3.38-1.5-2.94-3.6.46-2.22,2.3-3.85,4.37-3.88,2.25-.03,3.5,1.42,3.01,3.58Z"/>
  <path class="cls-3" d="m144.24,68.4c-2.01-.34-3.74.22-5.24,1.55-.12.11-.25.22-.38.33l-.1-.07c.1-.61.21-1.23.33-1.95-.47,0-.88.03-1.28,0-.43-.04-.58.15-.67.54-.52,2.24-1.07,4.48-1.61,6.71-.2.82-.39,1.65-.61,2.56.6,0,1.1-.01,1.61,0,.33.01.46-.11.54-.43.32-1.37.67-2.74,1.02-4.11.5-1.93,1.66-3.29,3.64-3.85,2.01-.57,3.15.5,2.71,2.48-.32,1.45-.7,2.89-1.06,4.33-.24.99.25,1.6,1.28,1.55.16,0,.42-.2.46-.34.53-2.11,1.08-4.21,1.52-6.33.32-1.56-.55-2.7-2.15-2.97Z"/>
  <path class="cls-3" d="m164.26,68.36c-1.02.15-1.94.51-2.65,1.29-.85.94-.82,2.15.15,2.97.42.36.95.59,1.44.88.47.28.99.49,1.4.83.69.6.61,1.53-.13,2.07-.62.46-1.35.6-2.1.52-.84-.1-1.66-.29-2.53-.45-.16.31-.33.65-.51,1.01.19.09.3.16.42.2,1.34.43,2.71.5,4.1.29.99-.15,1.92-.48,2.63-1.21,1.06-1.09.96-2.54-.26-3.44-.48-.35-1.05-.59-1.57-.89-.35-.19-.72-.35-1.03-.58-.72-.54-.72-1.44.04-1.92.41-.26.94-.46,1.42-.47.82-.02,1.64.13,2.55.22.12-.24.29-.59.5-1.01-1.32-.5-2.59-.52-3.88-.33Z"/>
  <rect class="cls-4" x="122.57" y="80.39" width="25.16" height="1.72"/>
  <rect class="cls-6" x="147.73" y="80.31" width="31.07" height="1.8"/>
  <g>
    <path class="cls-3" d="m83.53,54.06c-4.17-3.43-10.41-3.11-14.79-.6-.43.25-.84.51-1.24.78-1.64,1.12-2.99,2.44-4.05,3.94-.98,1.39-1.7,2.94-2.18,4.64-1.13,4.04-.55,7.88,2.22,11.29,2.48,3.06,7.63,4.46,12,3.44,3.19-.74,6.17-2.62,8.37-5.13-.49.08-1.02.14-1.58.19-.21.25-.42.49-.65.73-4.66,4.85-12.01,5.49-16.42,1.43-4.41-4.07-4.21-11.3.44-16.15,4.66-4.85,12.01-5.49,16.42-1.43,3.17,2.92,3.96,7.48,2.42,11.62.5.11,1.01.27,1.5.49,1.02-1.95,1.6-4.1,1.57-6.31.02-3.49-1.17-6.57-4.04-8.93Z"/>
    <g>
      <path class="cls-3" d="m58.08,43.22c3.45-.86,6.44-4.41,6.39-8.27,0-1.98-.62-3.73-2.14-5.07-2.21-1.95-5.51-1.77-7.82-.34-2.04,1.26-3.36,3.04-3.95,5.31-.6,2.29-.29,4.47,1.17,6.41,1.31,1.74,4.04,2.53,6.35,1.95Z"/>
      <path class="cls-3" d="m67.51,54.24c-.74-2.21-3.94-10.21-11.71-10.21-9.03,0-18.15,9.46-19.4,17.78-1.25,8.32,2.32,16.64,4.56,18.4,0,0-3.4-11.04.63-19.01,1.16-2.3,2.96-4.4,5.09-5.98.02-.32.08-.64.16-.97.37-1.41,1.19-2.53,2.46-3.31,1.44-.89,3.5-1,4.87.21.42.37.73.8.95,1.26,3.09.21,6.09,1.9,8.35,5.77,1.06-1.51,2.41-2.82,4.05-3.94Z"/>
      <path class="cls-3" d="m68.53,67.09c1.08.02,2.03-.25,2.77-.92,1.06-.97.97-2.44.19-3.48-.69-.92-1.66-1.51-2.9-1.79-1.25-.28-2.44-.15-3.5.49-.95.57-1.38,1.78-1.07,2.82.47,1.54,2.4,2.89,4.51,2.89Z"/>
      <g>
        <path class="cls-3" d="m55.11,52.42c-.21-.46-.53-.89-.95-1.26-1.37-1.21-3.43-1.1-4.87-.21-1.27.78-2.09,1.9-2.46,3.31-.09.33-.14.65-.16.97-.08,1.07.19,2.09.89,3.02.82,1.08,2.51,1.57,3.95,1.21,2.15-.54,4.01-2.75,3.98-5.15,0-.68-.12-1.32-.38-1.9Z"/>
        <path class="cls-5" d="m50.54,60.08c-1.34,0-2.65-.57-3.38-1.53-.75-1-1.09-2.13-.99-3.36.03-.35.09-.7.18-1.05.4-1.55,1.31-2.76,2.68-3.61,1.47-.9,3.8-1.2,5.46.26.46.41.82.89,1.07,1.42h0c.29.62.43,1.33.43,2.11.03,2.53-1.88,5.01-4.36,5.63-.36.09-.73.13-1.1.13Zm1.17-9.32c-.78,0-1.56.25-2.15.61-1.15.71-1.9,1.72-2.24,3.01-.08.29-.13.59-.15.88-.08.98.19,1.89.79,2.69.68.91,2.16,1.35,3.43,1.03,2.01-.5,3.62-2.59,3.6-4.65,0-.64-.11-1.2-.34-1.69h0c-.19-.41-.47-.78-.82-1.09-.62-.55-1.38-.77-2.13-.77Z"/>
      </g>
      <path class="cls-3" d="m60.42,62.12c-9.47-4.82-14.88.42-14.88.42-6.57,5.32-1.94,13.47-1.94,13.47.47-16.56,16.83-13.88,16.83-13.88Z"/>
      <path class="cls-3" d="m73.55,50.84c2.4.61,4.47-.87,5.28-2.91.72-1.8.7-3.71-.03-5.71-.74-2.02-2.01-3.57-3.92-4.47-1.71-.81-3.88-.32-5.11,1.07-1.83,2.07-2.04,6.02-.11,8.97.97,1.53,2.24,2.63,3.89,3.05Z"/>
      <path class="cls-3" d="m86,69.3c-.49-.22-1-.38-1.5-.49-1.71-.38-3.37-.2-4.24-.17-1.58.07-3.59.72-8.85,0-5.26-.72-8.51-4.53-8.51-4.53,3.05,5.65,9.45,7.49,9.45,7.49,3.76,1.15,7.2,1.27,9.93,1.01.56-.05,1.09-.12,1.58-.19,2.82-.43,4.55-1.18,4.55-1.18-.68-.92-1.52-1.53-2.41-1.94Z"/>
    </g>
  </g>
</svg>