<?xml version="1.0" encoding="UTF-8"?>
<svg id="Capa_1" data-name="Capa 1" xmlns="http://www.w3.org/2000/svg" viewBox="0 0 215 110">
  <defs>
    <style>
      .cls-1 {
        fill: #099;
      }

      .cls-1, .cls-2, .cls-3 {
        stroke-width: 0px;
      }

      .cls-2 {
        fill: #fff;
      }

      .cls-3 {
        fill: #75c2a6;
      }
    </style>
  </defs>
  <rect class="cls-1" width="215" height="110" rx="5" ry="5"/>
  <g>
    <circle class="cls-3" cx="63.3" cy="55" r="39.68"/>
    <g>
      <path class="cls-2" d="m111.19,45.73v-.04c0-3.65,2.75-6.65,6.7-6.65,1.93,0,3.23.51,4.3,1.3.29.22.55.62.55,1.12,0,.77-.62,1.38-1.4,1.38-.39,0-.64-.15-.84-.28-.79-.59-1.62-.92-2.62-.92-2.17,0-3.73,1.8-3.73,4v.04c0,2.2,1.52,4.04,3.73,4.04,1.19,0,1.98-.37,2.79-1.01.22-.18.51-.31.84-.31.72,0,1.32.59,1.32,1.3,0,.44-.22.79-.48,1.01-1.16,1.01-2.51,1.62-4.57,1.62-3.78,0-6.59-2.92-6.59-6.61Z"/>
      <path class="cls-2" d="m123.62,47.26v-.04c0-2.83,2.28-5.12,5.34-5.12s5.3,2.26,5.3,5.08v.04c0,2.83-2.28,5.12-5.34,5.12s-5.31-2.26-5.31-5.08Zm7.89,0v-.04c0-1.45-1.05-2.72-2.59-2.72s-2.55,1.23-2.55,2.68v.04c0,1.45,1.05,2.72,2.59,2.72s2.55-1.23,2.55-2.68Z"/>
      <path class="cls-2" d="m136.01,49.33v-4.66h-.09c-.66,0-1.19-.53-1.19-1.19s.53-1.19,1.19-1.19h.09v-1.23c0-.77.62-1.4,1.4-1.4s1.4.62,1.4,1.4v1.23h1.23c.66,0,1.19.53,1.19,1.19s-.53,1.19-1.19,1.19h-1.23v4.2c0,.64.28.95.9.95.09,0,.27-.02.33-.02.62,0,1.16.51,1.16,1.16,0,.5-.33.9-.72,1.05-.51.2-.99.28-1.6.28-1.71,0-2.86-.68-2.86-2.96Z"/>
      <path class="cls-2" d="m142.4,39.93c0-.81.68-1.3,1.56-1.3s1.56.5,1.56,1.3v.04c0,.81-.68,1.32-1.56,1.32s-1.56-.51-1.56-1.32v-.04Zm.17,3.63c0-.77.62-1.4,1.4-1.4s1.4.62,1.4,1.4v7.27c0,.77-.62,1.4-1.4,1.4s-1.4-.62-1.4-1.4v-7.27Z"/>
      <path class="cls-2" d="m146.8,51v-.06c0-.53.18-.88.62-1.36l4.57-5.05h-3.89c-.62,0-1.14-.5-1.14-1.12s.51-1.14,1.14-1.14h6.11c.79,0,1.36.46,1.36,1.12v.06c0,.53-.18.88-.62,1.36l-4.59,5.05h4.08c.62,0,1.14.51,1.14,1.14s-.51,1.12-1.14,1.12h-6.28c-.79,0-1.36-.46-1.36-1.12Z"/>
      <path class="cls-2" d="m156.26,49.29v-.04c0-2.15,1.63-3.14,3.97-3.14.99,0,1.71.17,2.4.4v-.17c0-1.16-.72-1.8-2.11-1.8-.77,0-1.4.11-1.93.28-.17.06-.28.07-.4.07-.64,0-1.16-.5-1.16-1.14,0-.5.31-.92.75-1.08.88-.33,1.84-.51,3.14-.51,1.52,0,2.62.4,3.32,1.1.73.73,1.06,1.82,1.06,3.14v4.48c0,.75-.61,1.34-1.36,1.34-.81,0-1.34-.57-1.34-1.16v-.02c-.68.75-1.62,1.25-2.97,1.25-1.85,0-3.38-1.06-3.38-3.01Zm6.41-.64v-.5c-.48-.22-1.1-.37-1.78-.37-1.19,0-1.93.48-1.93,1.36v.04c0,.75.62,1.19,1.52,1.19,1.3,0,2.18-.72,2.18-1.73Z"/>
      <path class="cls-2" d="m111.92,67.24v-4.66h-.09c-.66,0-1.19-.53-1.19-1.19s.53-1.19,1.19-1.19h.09v-1.23c0-.77.62-1.4,1.4-1.4s1.4.62,1.4,1.4v1.23h1.23c.66,0,1.19.53,1.19,1.19s-.53,1.19-1.19,1.19h-1.23v4.2c0,.64.28.95.9.95.09,0,.27-.02.33-.02.62,0,1.16.51,1.16,1.16,0,.5-.33.9-.72,1.05-.51.2-.99.28-1.6.28-1.71,0-2.86-.68-2.86-2.96Z"/>
      <path class="cls-2" d="m127.29,68.75c0,.77-.62,1.4-1.4,1.4s-1.4-.62-1.4-1.4v-.11c-.64.83-1.47,1.58-2.88,1.58-2.11,0-3.34-1.4-3.34-3.65v-5.08c0-.77.62-1.4,1.4-1.4s1.4.62,1.4,1.4v4.2c0,1.32.62,2,1.69,2s1.74-.68,1.74-2v-4.2c0-.77.62-1.4,1.4-1.4s1.4.62,1.4,1.4v7.27Z"/>
      <path class="cls-2" d="m133.35,65.17v-.04c0-2.81,2.15-5.12,5.16-5.12,1.49,0,2.53.4,3.36,1.1.18.15.44.48.44.95,0,.7-.57,1.25-1.27,1.25-.37,0-.64-.15-.81-.28-.5-.39-1.01-.62-1.74-.62-1.4,0-2.39,1.23-2.39,2.68v.04c0,1.51.97,2.72,2.5,2.72.73,0,1.3-.26,1.84-.68.15-.11.42-.26.75-.26.66,0,1.17.53,1.17,1.19,0,.37-.17.66-.4.88-.83.75-1.87,1.27-3.49,1.27-2.96,0-5.12-2.28-5.12-5.08Z"/>
      <path class="cls-2" d="m143.54,57.84c0-.81.68-1.3,1.56-1.3s1.56.5,1.56,1.3v.04c0,.81-.68,1.32-1.56,1.32s-1.56-.51-1.56-1.32v-.04Zm.17,3.63c0-.77.62-1.4,1.4-1.4s1.4.62,1.4,1.4v7.27c0,.77-.62,1.4-1.4,1.4s-1.4-.62-1.4-1.4v-7.27Z"/>
      <path class="cls-2" d="m148.38,61.48c0-.77.62-1.4,1.4-1.4s1.4.62,1.4,1.4v.44c.4-.95,1.06-1.84,1.89-1.84s1.36.57,1.36,1.36c0,.73-.48,1.17-1.05,1.3-1.41.33-2.2,1.41-2.2,3.4v2.61c0,.77-.62,1.4-1.4,1.4s-1.4-.62-1.4-1.4v-7.27Z"/>
      <path class="cls-2" d="m164.26,68.75c0,.77-.62,1.4-1.4,1.4s-1.4-.62-1.4-1.4v-.11c-.64.83-1.47,1.58-2.88,1.58-2.11,0-3.34-1.4-3.34-3.65v-5.08c0-.77.62-1.4,1.4-1.4s1.4.62,1.4,1.4v4.2c0,1.32.62,2,1.69,2s1.74-.68,1.74-2v-4.2c0-.77.62-1.4,1.4-1.4s1.4.62,1.4,1.4v7.27Z"/>
      <path class="cls-2" d="m166.83,72.33c-.48-.18-.79-.57-.79-1.08,0-.62.51-1.14,1.14-1.14.18,0,.33.04.46.09.81.37,1.67.59,2.72.59,1.91,0,2.81-.92,2.81-2.68v-.48c-.83.99-1.73,1.6-3.21,1.6-2.29,0-4.37-1.67-4.37-4.59v-.04c0-2.94,2.11-4.59,4.37-4.59,1.52,0,2.42.64,3.18,1.47v-.02c0-.75.62-1.38,1.4-1.38s1.4.62,1.4,1.4v6.33c0,1.76-.42,3.05-1.25,3.87-.92.92-2.33,1.32-4.24,1.32-1.3,0-2.44-.22-3.6-.68Zm6.33-7.69v-.04c0-1.34-1.05-2.28-2.4-2.28s-2.39.94-2.39,2.28v.04c0,1.36,1.03,2.28,2.39,2.28s2.4-.94,2.4-2.28Z"/>
      <path class="cls-2" d="m177.81,61.48c0-.77.62-1.4,1.4-1.4s1.4.62,1.4,1.4v7.27c0,.77-.62,1.4-1.4,1.4s-1.4-.62-1.4-1.4v-7.27Zm.62-2.73c0-.17.09-.35.18-.5l1.01-1.58c.24-.39.59-.62,1.05-.62.68,0,1.56.42,1.56.84,0,.26-.15.46-.37.66l-1.14,1.06c-.53.5-.97.61-1.6.61-.4,0-.7-.18-.7-.48Z"/>
      <path class="cls-2" d="m181.9,67.2v-.04c0-2.15,1.63-3.14,3.97-3.14.99,0,1.71.17,2.4.4v-.17c0-1.16-.72-1.8-2.11-1.8-.77,0-1.4.11-1.93.28-.17.06-.28.07-.4.07-.64,0-1.16-.5-1.16-1.14,0-.5.31-.92.75-1.08.88-.33,1.84-.51,3.14-.51,1.52,0,2.62.4,3.32,1.1.73.73,1.06,1.82,1.06,3.14v4.48c0,.75-.61,1.34-1.36,1.34-.81,0-1.34-.57-1.34-1.16v-.02c-.68.75-1.62,1.25-2.97,1.25-1.85,0-3.38-1.06-3.38-3.01Zm6.41-.64v-.5c-.48-.22-1.1-.37-1.78-.37-1.19,0-1.93.48-1.93,1.36v.04c0,.75.62,1.19,1.52,1.19,1.3,0,2.18-.72,2.18-1.73Z"/>
    </g>
  </g>
  <g>
    <path class="cls-2" d="m81.84,59.69h-8.42v-6.97h8.37c.58,0,1.05-.47,1.05-1.05s-.47-1.05-1.05-1.05h-9.42c-.45,0-.84.29-.98.7h-14.28c-2.91,0-5.27,2.39-5.27,5.32,0,1.13.38,2.17,1.02,3.01-.12-.03-.24-.04-.36-.02-.27-.05-.92-.27-1.33-.41-1.41-.47-1.92-.63-2.41-.38-1.52.76-3.33.45-3.99-.05-1.36-1.03-1.64-2.97-.61-4.34.5-.66,1.22-1.09,2.04-1.2.82-.12,1.63.09,2.29.59.66.5,1.09,1.22,1.2,2.04.07.52.56.87,1.06.8.51-.07.87-.55.8-1.06-.19-1.32-.87-2.48-1.94-3.28-1.06-.8-2.38-1.14-3.69-.95-1.32.19-2.48.87-3.28,1.94-1.52,2.02-1.26,4.83.5,6.55-1.9.54-3.21,2.17-3.21,4.2v11.65c0,.58.47,1.05,1.05,1.05s1.05-.47,1.05-1.05v-11.65c0-1.33,1.06-2.3,2.52-2.3h37.28c1.32,0,2.74.88,2.74,2.3v11.65c0,.58.47,1.05,1.05,1.05s1.05-.47,1.05-1.05v-11.65c0-2.42-2.17-4.39-4.83-4.39Zm-11.94,0c.12-.33.19-.68.19-1.05,0-1.73-1.4-3.14-3.12-3.14h-6.11s-.05,0-.08,0c-.64.05-1.45-.05-1.67-.2-.27-.48-.88-.66-1.37-.41-.52.26-.73.89-.47,1.4.69,1.38,2.9,1.35,3.63,1.3h6.08c.56,0,1.02.48,1.02,1.05s-.47,1.05-1.02,1.05h-10.77c-1.3-.43-2.28-1.64-2.28-3.05,0-1.75,1.46-3.23,3.18-3.23h14.21v6.28h-1.42Zm10.84,9.42c0,.58-.47,1.05-1.05,1.05h-34.17c-.58,0-1.05-.47-1.05-1.05s.47-1.05,1.05-1.05h34.17c.58,0,1.05.47,1.05,1.05Zm-32.93-27.56c.12.05,2.85,1.26,6.35,1.26.14,0,.28,0,.41,0,3.68-.1,6.13-1.28,6.24-1.33.27-.13.47-.39.52-.69.05-.3-.05-.6-.26-.82l-5.78-5.83v-3.73c0-.58-.47-1.05-1.05-1.05s-1.05.47-1.05,1.05v3.39l-5.69,6.26c-.2.22-.29.53-.22.83.06.3.26.54.54.67Zm6.27-5.93s.02,0,.02,0l4.6,4.64c-.96.29-2.42.62-4.18.67-1.89.05-3.59-.32-4.68-.65l4.24-4.66Zm.51,9.43v1.39c0,.58-.47,1.05-1.05,1.05s-1.05-.47-1.05-1.05v-1.39c0-.58.47-1.05,1.05-1.05s1.05.47,1.05,1.05Zm-7.79.46l.93-1.63c.26-.45.83-.61,1.28-.35.45.26.61.83.35,1.28l-.93,1.63c-.17.3-.49.47-.82.47-.16,0-.32-.04-.47-.12-.45-.26-.61-.83-.35-1.28Zm13.13-1.65l.93,1.51c.27.44.13,1.02-.31,1.3-.15.09-.32.14-.49.14-.32,0-.62-.16-.8-.45l-.93-1.51c-.27-.44-.13-1.02.31-1.3.44-.27,1.02-.13,1.29.31Z"/>
    <circle class="cls-2" cx="85.17" cy="51.76" r="1.04"/>
  </g>
</svg>